# xmcd CD database file
#
# Track frame offsets:
#	150
#	43234
#	78921
#	104743
#	177336
#	223527
#
# Disc length: 3272 seconds
#
# Revision: 0
# Processed by: cddbd v1.5.2PL0 Copyright (c) Steve Scherf et al.
# Submitted via: CDex 1.70beta2
#
DISCID=510cc606
DTITLE=Frank Rosolino - The Last Recording
DYEAR=1900
DGENRE=Jazz
TTITLE0=MISTY(RADIO EDIT)
TTITLE1=I THOUGHT ABOUT YOU(RADIO EDIT)
TTITLE2=WALTZ FOR DANE(TAKE TWO)
TTITLE3=MISTY
TTITLE4=I THOUGHT ABOUT YOU
TTITLE5=WALTZ FOR DIANE(TAKE ONE)
EXTD=
EXTT0=
EXTT1=
EXTT2=
EXTT3=
EXTT4=
EXTT5=
PLAYORDER=
